<?xml version="1.0" encoding="UTF-8"?>
<svg width="212px" height="143px" viewBox="0 0 212 143" version="1.1" xmlns="http://www.w3.org/2000/svg" xmlns:xlink="http://www.w3.org/1999/xlink">
    <!-- Generator: Sketch 51.2 (57519) - http://www.bohemiancoding.com/sketch -->
    <title>2-03</title>
    <desc>Created with Sketch.</desc>
    <defs></defs>
    <g id="about" stroke="none" stroke-width="1" fill="none" fill-rule="evenodd">
        <g id="Mobile-about-final-design" transform="translate(-55.000000, -1210.000000)">
            <g id="2-03" transform="translate(55.000000, 1210.000000)">
                <path d="M199.733122,143 C206.496832,143 212,137.521586 212,130.787583 L212,15.2131336 C212,8.47913071 206.496832,3 199.733122,3 L18.2675986,3 C11.503168,3 6,8.47913071 6,15.2131336 L6,130.787583 C6,137.521586 11.503168,143 18.2675986,143 L199.733122,143" id="Fill-6" fill="#BC975A"></path>
                <path d="M193.732993,140 C200.496774,140 206,134.520897 206,127.786929 L206,12.2137882 C206,5.47910264 200.496774,0 193.732993,0 L12.2677273,0 C5.50394601,0 0,5.47910264 0,12.2137882 L0,127.786929 C0,134.520897 5.50394601,140 12.2677273,140 L193.732993,140" id="Fill-12" fill="#FFFFFE"></path>
                <path d="M59.1677651,15.3643834 C61.59882,15.3643834 63.5689739,17.3357987 63.5689739,19.7675225 C63.5689739,22.1985272 61.59882,24.1699425 59.1677651,24.1699425 C56.7374292,24.1699425 54.7665563,22.1985272 54.7665563,19.7675225 C54.7665563,17.3357987 56.7374292,15.3643834 59.1677651,15.3643834 Z M73.0458456,21.7576379 C75.4761815,21.7576379 77.4470544,23.7283339 77.4470544,26.1600578 C77.4470544,28.5917817 75.4761815,30.5624777 73.0458456,30.5624777 C70.6147907,30.5624777 68.6446368,28.5917817 68.6446368,26.1600578 C68.6446368,23.7283339 70.6147907,21.7576379 73.0458456,21.7576379 Z M129.324658,21.7576379 C131.754994,21.7576379 133.725867,23.7283339 133.725867,26.1600578 C133.725867,28.5917817 131.754994,30.5624777 129.324658,30.5624777 C126.893603,30.5624777 124.92345,28.5917817 124.92345,26.1600578 C124.92345,23.7283339 126.893603,21.7576379 129.324658,21.7576379 Z M143.20202,15.3643834 C145.633075,15.3643834 147.603948,17.3357987 147.603948,19.7675225 C147.603948,22.1985272 145.633075,24.1699425 143.20202,24.1699425 C140.771684,24.1699425 138.800811,22.1985272 138.800811,19.7675225 C138.800811,17.3357987 140.771684,15.3643834 143.20202,15.3643834 Z M185.672498,43.7107605 L185.672498,117.747798 C185.672498,118.555495 185.018177,119.208558 184.205668,119.208558 L21.5709009,119.208558 C20.7634254,119.208558 20.1098232,118.555495 20.1098232,117.747798 L20.1098232,43.7107605 C20.1098232,42.9030628 20.7634254,42.2492808 21.5709009,42.2492808 L184.205668,42.2492808 C185.018177,42.2492808 185.672498,42.9030628 185.672498,43.7107605 Z M18.6796641,18.3650199 L17,127 L192,127 L192,14 L50.8650763,14 L18.6796641,18.3650199 Z" id="Fill-80" fill="#DC9748"></path>
                <path d="M170,92 L182,92 L182,62.1577707 C180.107364,62.0856674 175.921542,62.0342669 170,62 L170,92" id="Fill-81" fill="#78A292"></path>
                <polygon id="Fill-82" fill="#FFFFFE" points="23 107 183 107 183 95 23 95"></polygon>
                <path d="M142.568128,66.8675343 C148.207633,66.8675343 152.778827,71.4042322 152.778827,77.0004668 C152.778827,82.5974139 148.207633,87.1341118 142.568128,87.1341118 C136.929341,87.1341118 132.358147,82.5974139 132.358147,77.0004668 C132.358147,71.4042322 136.929341,66.8675343 142.568128,66.8675343 Z M167,92 L167,62.0429731 C156.545198,61.9973709 141.986588,61.9909581 125.620895,62.0101965 C124.603559,63.0077428 113.573678,74.5415153 125.501715,92 L167,92 Z" id="Fill-83" fill="#C0422F"></path>
                <path d="M168.580667,58.7266826 C168.709604,58.6910326 168.83638,58.6490913 168.976842,58.6490913 C169.129549,58.6490913 169.269291,58.6910326 169.407592,58.7336729 C176.952927,58.7993809 180.903874,58.8923507 183,59 L183,45 L23,45 L23,58.9594568 C109.400029,58.5854803 149.701122,58.5728979 168.580667,58.7266826" id="Fill-84" fill="#FFFFFE"></path>
                <polygon id="Fill-85" fill="#78A292" points="23 116 183 116 183 110 23 110"></polygon>
                <path d="M34,62 C30.165376,62.0158186 26.4902874,62.0309182 23,62.0467368 L23,92 L34,92 L34,62" id="Fill-86" fill="#78A292"></path>
                <path d="M63.6613963,87.1156304 C58.0137278,87.1156304 53.4353339,82.5617013 53.4353339,76.9434961 C53.4353339,71.3260061 58.0137278,66.7720771 63.6613963,66.7720771 C69.3090649,66.7720771 73.8881779,71.3260061 73.8881779,76.9434961 C73.8881779,82.5617013 69.3090649,87.1156304 63.6613963,87.1156304 Z M37,62.1459088 L37,92 L78.5722768,92 C90.0135875,75.4958516 80.0485517,63.6300305 78.5377609,62 C64.0151846,62.0429144 49.7457251,62.0944116 37,62.1459088 Z" id="Fill-87" fill="#C0422F"></path>
                <polyline id="Fill-88" fill="#FFFFFE" points="51 14 14 14 14 127 17.2137733 127 18.8895265 18.3650199 51 14"></polyline>
                <path d="M13.9204524,127.073251 L192.081704,127.073251 L192.081704,13.926749 L13.9204524,13.926749 L13.9204524,127.073251 Z M195,128.536626 L195,12.4633745 C195,11.6546296 194.345899,11 193.540852,11 L12.4598668,11 C11.6526632,11 11,11.6546296 11,12.4633745 L11,128.536626 C11,129.34537 11.6526632,130 12.4598668,130 L193.540852,130 C194.345899,130 195,129.34537 195,128.536626 Z" id="Fill-89" fill="#68371B"></path>
                <path d="M22.9115076,116.076214 L182.083476,116.076214 L182.083476,110.105587 L22.9115076,110.105587 L22.9115076,116.076214 Z M22.9115076,107.1818 L182.083476,107.1818 L182.083476,95.1203716 L22.9115076,95.1203716 L22.9115076,107.1818 Z M22.9115076,62.2189585 C26.3762231,62.203127 30.0243858,62.1880152 33.830915,62.1721837 L33.830915,92.1965851 L22.9115076,92.1965851 L22.9115076,62.2189585 Z M125.37608,61.9088054 C141.710762,61.8893759 156.241786,61.8958524 166.676779,61.9419076 L166.676779,92.1965851 L125.257126,92.1965851 C113.35169,74.5646343 124.360671,62.9162632 125.37608,61.9088054 Z M78.1706745,92.1965851 L36.7424226,92.1965851 L36.7424226,62.1599503 C49.4439908,62.1081382 63.6640146,62.056326 78.1362782,62.0131493 C79.641835,63.6531467 89.5723474,75.5915217 78.1706745,92.1965851 Z M22.9115076,44.9245061 L182.083476,44.9245061 L182.083476,59.3369096 C179.998198,59.2260892 176.067698,59.1303807 168.561412,59.0627371 C168.423826,59.0188408 168.284808,58.975664 168.132891,58.975664 C167.993155,58.975664 167.867036,59.0188408 167.738766,59.055541 C148.956926,58.8972262 108.864399,58.9101792 22.9115076,59.2951721 L22.9115076,44.9245061 Z M182.083476,92.1965851 L169.589003,92.1965851 L169.589003,61.9562999 C175.754548,61.9908413 180.112852,62.0426534 182.083476,62.1153343 L182.083476,92.1965851 Z M20,43.462253 L20,117.538467 C20,118.346592 20.6513808,119 21.4561121,119 L183.538155,119 C184.347903,119 185,118.346592 185,117.538467 L185,43.462253 C185,42.654128 184.347903,42 183.538155,42 L21.4561121,42 C20.6513808,42 20,42.654128 20,43.462253 Z" id="Fill-90" fill="#68371B"></path>
                <path d="M62.9996484,67 C57.4770242,67 53,71.4770242 53,76.9996484 C53,82.5229758 57.4770242,87 62.9996484,87 C68.5222726,87 73,82.5229758 73,76.9996484 C73,71.4770242 68.5222726,67 62.9996484,67" id="Fill-91" fill="#68371B"></path>
                <path d="M141.999648,87 C147.522976,87 152,82.5229758 152,76.9996484 C152,71.4770242 147.522976,67 141.999648,67 C136.477024,67 132,71.4770242 132,76.9996484 C132,82.5229758 136.477024,87 141.999648,87" id="Fill-92" fill="#68371B"></path>
                <path d="M59.5,24 C61.9856233,24 64,21.9850527 64,19.5003676 C64,17.0149473 61.9856233,15 59.5,15 C57.0151119,15 55,17.0149473 55,19.5003676 C55,21.9850527 57.0151119,24 59.5,24" id="Fill-93" fill="#68371B"></path>
                <path d="M72.5,31 C74.9848881,31 77,28.9856233 77,26.5 C77,24.0143767 74.9848881,22 72.5,22 C70.0143767,22 68,24.0143767 68,26.5 C68,28.9856233 70.0143767,31 72.5,31" id="Fill-94" fill="#68371B"></path>
                <path d="M143.499632,24 C145.985053,24 148,21.9850527 148,19.5003676 C148,17.0149473 145.985053,15 143.499632,15 C141.014947,15 139,17.0149473 139,19.5003676 C139,21.9850527 141.014947,24 143.499632,24" id="Fill-95" fill="#68371B"></path>
                <path d="M129.5,31 C131.984888,31 134,28.9856233 134,26.5 C134,24.0143767 131.984888,22 129.5,22 C127.014377,22 125,24.0143767 125,26.5 C125,28.9856233 127.014377,31 129.5,31" id="Fill-96" fill="#68371B"></path>
            </g>
        </g>
    </g>
</svg>