<?xml version="1.0" encoding="UTF-8"?>
<svg width="12px" height="67px" viewBox="0 0 12 67" version="1.1" xmlns="http://www.w3.org/2000/svg" xmlns:xlink="http://www.w3.org/1999/xlink">
    <!-- Generator: Sketch 51.2 (57519) - http://www.bohemiancoding.com/sketch -->
    <title>Line 3</title>
    <desc>Created with Sketch.</desc>
    <defs></defs>
    <g id="Perform" stroke="none" stroke-width="1" fill="none" fill-rule="evenodd">
        <g id="Mobile-Final-Design" transform="translate(-155.000000, -447.000000)" fill="#F6AE2D" fill-rule="nonzero">
            <g id="landing">
                <path id="Line-3" d="M161,447.5 C158.514719,447.5 156.5,449.514719 156.5,452 C156.5,454.485281 158.514719,456.5 161,456.5 C163.485281,456.5 165.5,454.485281 165.5,452 C165.5,449.514719 163.485281,447.5 161,447.5 Z M161,448.5 C162.932997,448.5 164.5,450.067003 164.5,452 C164.5,453.932997 162.932997,455.5 161,455.5 C159.067003,455.5 157.5,453.932997 157.5,452 C157.5,450.067003 159.067003,448.5 161,448.5 Z M165.064212,504.254869 L160.564212,512.254869 L161.435788,512.254869 L156.935788,504.254869 L156.690657,503.819082 L155.819082,504.309343 L156.064212,504.745131 L160.564212,512.745131 L161,513.519864 L161.435788,512.745131 L165.935788,504.745131 L166.180918,504.309343 L165.309343,503.819082 L165.064212,504.254869 Z M160.5,456 L160.5,504.5 L160.5,511.5 L160.5,512 L161.5,512 L161.5,511.5 L161.5,504.5 L161.5,456 L161.5,455.5 L160.5,455.5 L160.5,456 Z"></path>
            </g>
        </g>
    </g>
</svg>