<?xml version="1.0" encoding="UTF-8"?>
<svg width="10px" height="268px" viewBox="0 0 10 268" version="1.1" xmlns="http://www.w3.org/2000/svg" xmlns:xlink="http://www.w3.org/1999/xlink">
    <!-- Generator: Sketch 51.2 (57519) - http://www.bohemiancoding.com/sketch -->
    <title>Line 4</title>
    <desc>Created with Sketch.</desc>
    <defs></defs>
    <g id="Perform" stroke="none" stroke-width="1" fill="none" fill-rule="evenodd">
        <g id="Desktop-HD-final-design" transform="translate(-1105.000000, -1121.000000)" fill="#F6AE2D" fill-rule="nonzero">
            <g id="pargraph" transform="translate(270.000000, 1125.000000)">
                <path id="Line-4" d="M844.75,4.5 L844.75,-3.5 L844.75,-4 L844.25,-4 L836.25,-4 L835.75,-4 L835.75,-3.5 L835.75,4.5 L835.75,5 L836.25,5 L844.25,5 L844.75,5 L844.75,4.5 Z M843.75,4.5 L844.25,4 L836.25,4 L836.75,4.5 L836.75,-3.5 L836.25,-3 L844.25,-3 L843.75,-3.5 L843.75,4.5 Z M835.75,255 L835.75,264 L844.75,264 L844.75,255 Z M839.75,4.5 L839.75,255.5 L839.75,256 L840.75,256 L840.75,255.5 L840.75,4.5 L840.75,4 L839.75,4 L839.75,4.5 Z"></path>
            </g>
        </g>
    </g>
</svg>